<svg height="64" viewBox="64.74 19 64 64" width="64" xmlns="http://www.w3.org/2000/svg"><g transform="matrix(.30184202 0 0 .30184202 43.915114 12.601386)"><path d="m172.02591 149.00362c-12.11181.0131-21.94904-9.77174-21.98323-21.87346-.0342-12.09909 9.74783-21.94175 21.86227-21.99429 12.11182-.0525 21.97798 9.70344 22.0516 21.80254.0526 5.8394-2.24039 11.45289-6.3583 15.60326-4.12054 4.14248-9.72942 6.46983-15.57234 6.46195" fill="#961d59"/><g fill="#d62783"><path d="m214.75648 137.0779c-5.59047 0-10.12386-4.52863-10.12386-10.11323s4.53339-10.11322 10.12386-10.11322 10.12385 4.52862 10.12385 10.11322c.008 2.68461-1.05708 5.26151-2.95826 7.15807-1.89856 1.89918-4.47817 2.96304-7.16559 2.95516m37.05068 9.53533c-1.57248 5.03297-6.88948 7.88831-11.95929 6.42255-5.06982-1.46576-8.03861-6.71413-6.67912-11.81015 1.36212-5.09601 6.54764-8.16938 11.6753-6.9269 5.13293 1.25299 8.31734 6.37002 7.17348 11.51857 0 .26268 0 .4991-.21037.78804m-7.15243-26.05797c-3.99696.99819-8.19901-.51223-10.63926-3.82726-2.44024-3.30978-2.63483-7.76748-.49436-11.27953 2.14311-3.51467 6.19791-5.38496 10.26586-4.7414 4.06532.65145 7.33651 3.68805 8.28315 7.69131.25244 1.3134.25244 2.65308 0 3.96648-.55221 4.07156-3.60251 7.36296-7.62576 8.22192m36.23552 24.92845c-.96769 5.49791-6.21631 9.17282-11.72001 8.20878-5.50633-.96666-9.1851-6.20453-8.22267-11.70507.96242-5.5058 6.20579-9.18333 11.71211-8.22192 5.22497.83007 8.94055 5.52156 8.54612 10.7962-.12096.28106-.19196.58315-.21037.89311m-8.36204-25.36974c-5.50107.9115-10.70237-2.80544-11.6122-8.30073-.91246-5.49004 2.80313-10.68587 8.30419-11.6 5.49581-.914129 10.70237 2.79755 11.61746 8.29022.10518.8721.10518 1.75471 0 2.62681-.41021 4.52862-3.82077 8.21667-8.30945 8.9837m-7.04726 60.41666c-2.55068 4.57065-8.14379 6.48823-12.96379 4.44457-4.8279-2.04892-7.33125-7.3971-5.81136-12.40906 1.52515-5.00933 6.58708-8.06431 11.73578-7.08451 5.14871.98768 8.73019 5.68705 8.30157 10.90127-.0789 1.47101-.51277 2.88949-1.2622 4.15036m-3.65511-92.936595c-4.88574 2.747645-11.0705 1.019203-13.82103-3.861413-2.75053-4.877989-1.02028-11.058877 3.86547-13.806522 4.88049-2.747645 11.0705-1.024456 13.82104 3.853533 1.04394 1.767844 1.48834 3.822011 1.26219 5.85779-.30766 3.304529-2.2141 6.246558-5.10137 7.880434"/><path d="m172.42035 228.88496c-36.75091.59104-70.96692-18.65824-89.515929-50.35597-18.549009-31.70037-18.549009-70.92917 0-102.629534 18.549009-31.695108 52.765019-50.944384 89.515929-50.355978 22.36189-.03677 44.09794 7.355073 61.79497 21.014493l-12.43788 16.207428c-24.56021-18.781703-57.66128-22.012682-85.39539-8.332247-27.73411 13.677808-45.294398 41.897645-45.294398 72.794208.01578 30.89918 17.570808 59.11639 45.297028 72.81521 27.72622 13.68569 60.83255 10.49411 85.41905-8.24819l12.41159 16.2337c-17.71806 13.59638-39.45412 20.93043-61.79497 20.85688z"/></g></g></svg>